<svg xmlns="http://www.w3.org/2000/svg" width="24" height="24" viewBox="0 0 24 24"><defs><style>.a{fill:#036721;}</style></defs><path class="a" d="M347.032,352.135a.068.068,0,0,1-.05-.021l-4.162-4.162a1.027,1.027,0,1,0-1.452,1.452l4.162,4.162a2.124,2.124,0,0,0,3,0l11.844-11.844a1.026,1.026,0,0,0,.3-.726,4.323,4.323,0,0,0-4.318-4.319H341A4.324,4.324,0,0,0,336.678,341V356.36A4.324,4.324,0,0,0,341,360.678H356.36a4.323,4.323,0,0,0,4.318-4.319v-8.779a1.027,1.027,0,1,0-2.053,0v8.779a2.268,2.268,0,0,1-2.265,2.265H341a2.268,2.268,0,0,1-2.265-2.265V341A2.268,2.268,0,0,1,341,338.731H356.36a2.269,2.269,0,0,1,2.231,1.874l-11.509,11.509A.067.067,0,0,1,347.032,352.135Z" transform="translate(-336.678 -336.678)"/></svg>