<svg xmlns="http://www.w3.org/2000/svg" xmlns:xlink="http://www.w3.org/1999/xlink" width="42.576" height="41.935" viewBox="0 0 42.576 41.935"><defs><style>.a{fill:none;}.b{fill:url(#a);}</style><linearGradient id="a" x1="0.5" x2="0.5" y2="1" gradientUnits="objectBoundingBox"><stop offset="0" stop-color="#2b5180"/><stop offset="0.223" stop-color="#2b5180"/><stop offset="1" stop-color="#309b93"/></linearGradient></defs><g transform="translate(0 0)"><rect class="a" width="41.935" height="41.935" transform="translate(0 0)"/><g transform="translate(0.262 5.14)"><g transform="translate(33.174 10.172)"><g transform="translate(0)"><circle class="b" cx="1.036" cy="1.036" r="1.036"/></g></g><g transform="translate(26.647 10.172)"><g transform="translate(0)"><circle class="b" cx="1.036" cy="1.036" r="1.036"/></g></g><g transform="translate(20.121 10.172)"><g transform="translate(0)"><circle class="b" cx="1.036" cy="1.036" r="1.036"/></g></g><g transform="translate(13.594 10.172)"><g transform="translate(0)"><circle class="b" cx="1.036" cy="1.036" r="1.036"/></g></g><g transform="translate(7.068 10.172)"><g transform="translate(0)"><circle class="b" cx="1.036" cy="1.036" r="1.036"/></g></g><g transform="translate(33.174 16.697)"><g transform="translate(0)"><circle class="b" cx="1.036" cy="1.036" r="1.036"/></g></g><g transform="translate(26.647 16.697)"><g transform="translate(0)"><circle class="b" cx="1.036" cy="1.036" r="1.036"/></g></g><g transform="translate(20.121 16.697)"><g transform="translate(0)"><circle class="b" cx="1.036" cy="1.036" r="1.036"/></g></g><g transform="translate(7.068 16.697)"><g transform="translate(0)"><circle class="b" cx="1.036" cy="1.036" r="1.036"/></g></g><g transform="translate(33.174 23.221)"><g transform="translate(0)"><circle class="b" cx="1.036" cy="1.036" r="1.036"/></g></g><g transform="translate(26.647 23.221)"><g transform="translate(0)"><circle class="b" cx="1.036" cy="1.036" r="1.036"/></g></g><g transform="translate(20.121 23.221)"><g transform="translate(0)"><circle class="b" cx="1.036" cy="1.036" r="1.036"/></g></g><g transform="translate(13.594 23.221)"><g transform="translate(0)"><circle class="b" cx="1.036" cy="1.036" r="1.036"/></g></g><g transform="translate(7.068 23.221)"><g transform="translate(0)"><circle class="b" cx="1.036" cy="1.036" r="1.036"/></g></g><g transform="translate(10.635 13.707)"><path class="b" d="M136.373,230.65H130.12a.89.89,0,0,0-.891.891v6.253a.89.89,0,0,0,.891.891h6.253a.89.89,0,0,0,.891-.891v-6.253A.891.891,0,0,0,136.373,230.65Zm-.891,6.253h-4.472v-4.472h4.472V236.9Z" transform="translate(-129.23 -230.65)"/></g><path class="b" d="M39.4,65.873H32.977V64.751a.972.972,0,1,0-1.943,0v1.122H25.744V64.751a.972.972,0,1,0-1.943,0v1.122H18.512V64.751a.972.972,0,1,0-1.943,0v1.122H11.28V64.751a.972.972,0,1,0-1.943,0v1.122H2.914A2.918,2.918,0,0,0,0,68.787V92.636a2.918,2.918,0,0,0,2.915,2.915H39.4a2.918,2.918,0,0,0,2.915-2.915V68.787A2.918,2.918,0,0,0,39.4,65.873Zm0,27.735H2.915a.973.973,0,0,1-.972-.972V68.787a.973.973,0,0,1,.972-.972H9.337v1.122a.972.972,0,1,0,1.943,0V67.816h5.289v1.122a.972.972,0,1,0,1.943,0V67.816H23.8v1.122a.972.972,0,1,0,1.943,0V67.816h5.289v1.122a.972.972,0,0,0,1.943,0V67.816H39.4a.973.973,0,0,1,.972.972V92.636h0A.973.973,0,0,1,39.4,93.608Z" transform="translate(0 -63.779)"/></g></g></svg>