<svg xmlns="http://www.w3.org/2000/svg" xmlns:xlink="http://www.w3.org/1999/xlink" width="41.935" height="42.051" viewBox="0 0 41.935 42.051"><defs><style>.a{fill:none;}.b{fill:url(#a);}</style><linearGradient id="a" x1="0.5" x2="0.5" y2="1" gradientUnits="objectBoundingBox"><stop offset="0" stop-color="#2b5180"/><stop offset="0.223" stop-color="#2b5180"/><stop offset="1" stop-color="#309b93"/></linearGradient></defs><rect class="a" width="41.935" height="41.935" transform="translate(0 0.116)"/><g transform="translate(0.532 0)"><g transform="translate(0)"><path class="b" d="M39.075,6.437a1.016,1.016,0,0,0,1.017-1.015V2.22A2.224,2.224,0,0,0,37.868,0H16.35a1.019,1.019,0,0,0-.719.3L7.2,8.706a1.014,1.014,0,0,0-.3.718V39.832a2.225,2.225,0,0,0,2.225,2.22H37.868a2.224,2.224,0,0,0,2.223-2.22v-15.5a1.017,1.017,0,0,0-2.034,0v15.5a.19.19,0,0,1-.189.19H9.132a.19.19,0,0,1-.19-.19V10.438h6.2a2.224,2.224,0,0,0,2.224-2.219V2.03h20.5a.19.19,0,0,1,.189.19v3.2A1.016,1.016,0,0,0,39.075,6.437ZM15.333,8.219a.189.189,0,0,1-.189.189H10.38l4.953-4.943Z" transform="translate(-6.907 0)"/></g><g transform="translate(7.23 5.993)"><path class="b" d="M123.893,75.808l-1.184-1.183a3.408,3.408,0,0,0-4.813,0L108.5,84.019H92.207a1.006,1.006,0,1,0,0,2.012H106.49l-6.054,6.054H92.207a1.006,1.006,0,0,0,0,2.012h6.218l-.016.016a1.006,1.006,0,0,0-.258.442l-1.554,5.6h-4.39a1.006,1.006,0,1,0,0,2.012h5.155s.22-.025.253-.033l6.348-1.761a1.006,1.006,0,0,0,.442-.258l19.488-19.488A3.407,3.407,0,0,0,123.893,75.808Zm-25.087,23.9.821-2.957,2.136,2.136Zm4.887-1.735-3.152-3.152,16.087-16.087,3.152,3.152ZM122.47,79.2,121.2,80.466l-3.152-3.152,1.267-1.267a1.393,1.393,0,0,1,1.968,0l1.184,1.184A1.393,1.393,0,0,1,122.47,79.2Z" transform="translate(-91.201 -73.63)"/></g></g></svg>