<svg xmlns="http://www.w3.org/2000/svg" width="40" height="40" viewBox="0 0 40 40"><defs><style>.a{fill:none;}.b,.d{fill:#fff;}.c{fill:#dd1906;}.d{font-size:16px;font-family:Jost-Black, Jost;font-weight:800;}</style></defs><g transform="translate(-1671 -12)"><g transform="translate(1671 12)"><path class="a" d="M0,0H40V40H0Z"/><path class="b" d="M33.39,8.608h-3.3V23.477H8.608v3.3a1.657,1.657,0,0,0,1.652,1.652H28.433l6.608,6.608V10.26A1.657,1.657,0,0,0,33.39,8.608Zm-6.608,9.913V3.652A1.657,1.657,0,0,0,25.129,2H3.652A1.657,1.657,0,0,0,2,3.652V26.781l6.608-6.608H25.129A1.657,1.657,0,0,0,26.781,18.521Z" transform="translate(1.479 1.479)"/></g><g transform="translate(11 -1)"><circle class="c" cx="11" cy="11" r="11" transform="translate(1678 13)"/><text class="d" transform="translate(1686 13)"><tspan x="-4.36" y="17">1</tspan></text></g></g></svg>