<svg xmlns="http://www.w3.org/2000/svg" xmlns:xlink="http://www.w3.org/1999/xlink" width="41.935" height="41.935" viewBox="0 0 41.935 41.935"><defs><style>.a{fill:none;}.b{fill:url(#a);}</style><linearGradient id="a" x1="0.5" x2="0.5" y2="1" gradientUnits="objectBoundingBox"><stop offset="0" stop-color="#2b5180"/><stop offset="0.223" stop-color="#2b5180"/><stop offset="1" stop-color="#309b93"/></linearGradient></defs><rect class="a" width="41.935" height="41.935" transform="translate(0 0)"/><path class="b" d="M16.387,1.95a14.387,14.387,0,0,0,0,28.774h7.194V27.847H16.387a11.657,11.657,0,0,1-11.51-11.51,11.657,11.657,0,0,1,11.51-11.51A11.657,11.657,0,0,1,27.9,16.337v2.057a2.326,2.326,0,0,1-2.158,2.259,2.326,2.326,0,0,1-2.158-2.259V16.337a7.2,7.2,0,1,0-2.1,5.079,5.328,5.328,0,0,0,4.259,2.115,5.054,5.054,0,0,0,5.036-5.136V16.337A14.392,14.392,0,0,0,16.387,1.95Zm0,18.7A4.316,4.316,0,1,1,20.7,16.337,4.31,4.31,0,0,1,16.387,20.653Z" transform="translate(4.556 4.605)"/></svg>