<svg xmlns="http://www.w3.org/2000/svg" xmlns:xlink="http://www.w3.org/1999/xlink" width="42.051" height="41.935" viewBox="0 0 42.051 41.935"><defs><style>.a{fill:none;}.b{fill:url(#a);}</style><linearGradient id="a" x1="0.5" x2="0.5" y2="1" gradientUnits="objectBoundingBox"><stop offset="0" stop-color="#2b5180"/><stop offset="0.223" stop-color="#2b5180"/><stop offset="1" stop-color="#309b93"/></linearGradient></defs><g transform="translate(0 0)"><rect class="a" width="41.935" height="41.935" transform="translate(0.116 0)"/><g transform="translate(0 4.614)"><g transform="translate(15.012 22.469)"><g transform="translate(0)"><path class="b" d="M194.842,332.734H185.4a1.292,1.292,0,0,0-1.291,1.291v2.9a1.293,1.293,0,0,0,1.291,1.291h9.446a1.293,1.293,0,0,0,1.291-1.291v-2.9A1.293,1.293,0,0,0,194.842,332.734Zm-.369,3.819h-8.708v-2.159h8.708Z" transform="translate(-184.105 -332.734)"/></g></g><path class="b" d="M41.639,72.512l.013-.007L35.541,60.423a2.871,2.871,0,0,0-2.574-1.583H31.8V57.717a.815.815,0,0,0-.815-.815H11.061a.815.815,0,0,0-.815.815V58.84H9.085a2.871,2.871,0,0,0-2.575,1.583L.4,72.505l.013.007A2.837,2.837,0,0,0,0,73.988V86.752a2.857,2.857,0,0,0,2.854,2.854H39.2a2.857,2.857,0,0,0,2.854-2.854V73.988A2.837,2.837,0,0,0,41.639,72.512ZM31.8,60.651h1.161a1.069,1.069,0,0,1,.959.59l5,9.894h-3.4V68.09a.815.815,0,0,0-.815-.815H33.7V62.9a.815.815,0,0,0-.815-.815H31.8ZM33.9,68.9v2.229H29.6a1.883,1.883,0,0,0-1.714,1.107l-1.174,2.6a.069.069,0,0,1-.063.04H15.406a.069.069,0,0,1-.063-.041l-1.174-2.6a1.883,1.883,0,0,0-1.714-1.107h-4.3V68.9H33.9ZM11.876,58.532h18.3v3.557h-18.3Zm20.2,5.187v3.557H9.978V63.718ZM8.127,61.241a1.069,1.069,0,0,1,.959-.59h1.161v1.438H9.163a.815.815,0,0,0-.815.815v4.372H7.34a.815.815,0,0,0-.815.815v3.044h-3.4ZM39.2,87.8H2.854a1.045,1.045,0,0,1-1.043-1.043V73.988a1.044,1.044,0,0,1,1.043-1.043h9.6a.069.069,0,0,1,.063.041l1.174,2.6A1.883,1.883,0,0,0,15.406,76.7h11.24a1.883,1.883,0,0,0,1.714-1.107l1.174-2.6h0a.069.069,0,0,1,.063-.041h9.6a1.044,1.044,0,0,1,1.043,1.043V86.752h0A1.044,1.044,0,0,1,39.2,87.8Z" transform="translate(0 -56.902)"/></g></g></svg>