<svg xmlns="http://www.w3.org/2000/svg" xmlns:xlink="http://www.w3.org/1999/xlink" width="42.256" height="42.051" viewBox="0 0 42.256 42.051"><defs><style>.a{fill:none;}.b{fill:url(#a);}</style><linearGradient id="a" x1="0.5" x2="0.5" y2="1" gradientUnits="objectBoundingBox"><stop offset="0" stop-color="#2b5180"/><stop offset="0.223" stop-color="#2b5180"/><stop offset="1" stop-color="#309b93"/></linearGradient></defs><rect class="a" width="41.935" height="41.935" transform="translate(0 0.116)"/><g transform="translate(0.42 0)"><path class="b" d="M15.2,21.262H10.451a.951.951,0,1,0,0,1.9H13.3v1.9a.951.951,0,1,0,1.9,0v-1.9a3.8,3.8,0,0,0,0-7.607H13.3a1.9,1.9,0,0,1,0-3.8h4.754a.951.951,0,1,0,0-1.9H15.2v-1.9a.951.951,0,1,0-1.9,0v1.9a3.8,3.8,0,0,0,0,7.607h1.9a1.9,1.9,0,1,1,0,3.8Z" transform="translate(6.664 4.41)"/><path class="b" d="M21.918,42.836A20.918,20.918,0,1,0,1,21.918,20.943,20.943,0,0,0,21.918,42.836Zm0-39.934A19.016,19.016,0,1,1,2.9,21.918,19.038,19.038,0,0,1,21.918,2.9Z" transform="translate(-1 -1)"/></g></svg>