<svg xmlns="http://www.w3.org/2000/svg" xmlns:xlink="http://www.w3.org/1999/xlink" width="42.051" height="41.935" viewBox="0 0 42.051 41.935"><defs><style>.a{fill:none;}.b{fill:url(#a);}</style><linearGradient id="a" x1="0.5" x2="0.5" y2="1" gradientUnits="objectBoundingBox"><stop offset="0" stop-color="#2b5180"/><stop offset="0.223" stop-color="#2b5180"/><stop offset="1" stop-color="#309b93"/></linearGradient></defs><g transform="translate(0 0)"><rect class="a" width="41.935" height="41.935" transform="translate(0 0)"/><g transform="translate(0 2.167)"><path class="b" d="M41.6,42.877,21.671,28.012a1.076,1.076,0,0,0-1.291,0L.447,42.877a1.126,1.126,0,0,0-.236,1.555,1.08,1.08,0,0,0,1.527.24L21.025,30.289,40.313,44.672a1.079,1.079,0,0,0,1.527-.241A1.126,1.126,0,0,0,41.6,42.877Z" transform="translate(0.001 -27.798)"/><g transform="translate(4.628 16.434)"><path class="b" d="M87.972,232.543a1.1,1.1,0,0,0-1.087,1.113v17.712H78.19V241.7a5.436,5.436,0,1,0-10.87,0v9.669H58.626V233.656a1.087,1.087,0,1,0-2.174,0v18.825a1.1,1.1,0,0,0,1.087,1.113H68.408a1.1,1.1,0,0,0,1.083-1.026.859.859,0,0,0,0-.087V241.7a3.262,3.262,0,1,1,6.522,0v10.781a.834.834,0,0,0,0,.086,1.1,1.1,0,0,0,1.083,1.027H87.972a1.1,1.1,0,0,0,1.087-1.113V233.656A1.1,1.1,0,0,0,87.972,232.543Z" transform="translate(-56.452 -232.543)"/></g></g></g></svg>