<svg xmlns="http://www.w3.org/2000/svg" width="40" height="40" viewBox="0 0 40 40"><defs><style>.a{fill:none;}.b,.d{fill:#fff;}.c{fill:#dd1906;}.d{font-size:16px;font-family:Jost-Black, Jost;font-weight:800;}</style></defs><g transform="translate(-1723 -11)"><g transform="translate(1723 11)"><path class="a" d="M0,0H40V40H0Z"/><path class="b" d="M18.521,2A16.521,16.521,0,1,0,35.042,18.521,16.527,16.527,0,0,0,18.521,2Zm0,27.259a2.475,2.475,0,0,1-2.478-2.478H21A2.475,2.475,0,0,1,18.521,29.259Zm8.26-4.13H10.26V23.477l1.652-1.652V17.513c0-3.5,1.7-6.476,4.956-7.253V9.434a1.652,1.652,0,0,1,3.3,0v.826c3.255.776,4.956,3.767,4.956,7.253v4.312l1.652,1.652Z" transform="translate(1.479 1.479)"/></g><g transform="translate(0 -1)"><circle class="c" cx="11" cy="11" r="11" transform="translate(1741 13)"/><text class="d" transform="translate(1746 12)"><tspan x="-6.144" y="17">4</tspan></text></g></g></svg>