<svg xmlns="http://www.w3.org/2000/svg" width="24" height="24" viewBox="0 0 24 24"><defs><style>.a{fill:#dd1906;}</style></defs><path class="a" d="M19.681,336.678H4.319A4.323,4.323,0,0,0,0,341v15.363a4.323,4.323,0,0,0,4.319,4.319H19.681A4.323,4.323,0,0,0,24,356.359V341A4.323,4.323,0,0,0,19.681,336.678Zm2.265,19.681a2.268,2.268,0,0,1-2.265,2.265H4.319a2.268,2.268,0,0,1-2.265-2.265V341a2.268,2.268,0,0,1,2.265-2.265H19.681A2.268,2.268,0,0,1,21.947,341v15.363Z" transform="translate(0 -336.678)"/><path class="a" d="M52.733,377.057a1.02,1.02,0,0,0-1.443,0l-4.733,4.732-4.733-4.732a1.021,1.021,0,1,0-1.443,1.443l4.733,4.733-4.733,4.733a1.021,1.021,0,1,0,1.443,1.443l4.733-4.733,4.733,4.733a1.021,1.021,0,0,0,1.443-1.443L48,383.232l4.733-4.733A1.02,1.02,0,0,0,52.733,377.057Z" transform="translate(-34.557 -371.233)"/></svg>