<svg xmlns="http://www.w3.org/2000/svg" xmlns:xlink="http://www.w3.org/1999/xlink" width="41.935" height="41.935" viewBox="0 0 41.935 41.935"><defs><style>.a{fill:none;}.b{fill:url(#a);}</style><linearGradient id="a" x1="0.5" x2="0.5" y2="1" gradientUnits="objectBoundingBox"><stop offset="0" stop-color="#2b5180"/><stop offset="0.223" stop-color="#2b5180"/><stop offset="1" stop-color="#309b93"/></linearGradient></defs><g transform="translate(0 0)"><rect class="a" width="41.935" height="41.935" transform="translate(0 0)"/><g transform="translate(0.672 0.41)"><g transform="translate(20.593 20.593)"><path class="b" d="M345.562,349.94a.058.058,0,0,1-.043-.018l-3.571-3.571A.881.881,0,0,0,340.7,347.6l3.571,3.571a1.822,1.822,0,0,0,2.577,0l10.162-10.162a.88.88,0,0,0,.258-.623,3.71,3.71,0,0,0-3.705-3.706H340.384a3.71,3.71,0,0,0-3.706,3.706v13.182a3.71,3.71,0,0,0,3.706,3.705h13.182a3.71,3.71,0,0,0,3.705-3.705v-7.532a.881.881,0,1,0-1.762,0v7.532a1.946,1.946,0,0,1-1.944,1.944H340.384a1.946,1.946,0,0,1-1.944-1.944V340.384a1.946,1.946,0,0,1,1.944-1.944h13.182a1.947,1.947,0,0,1,1.915,1.608l-9.875,9.875A.058.058,0,0,1,345.562,349.94Z" transform="translate(-336.678 -336.678)"/></g><g transform="translate(0)"><path class="b" d="M16.887,336.678H3.706A3.71,3.71,0,0,0,0,340.384v13.182a3.71,3.71,0,0,0,3.706,3.705H16.887a3.71,3.71,0,0,0,3.706-3.705V340.384A3.71,3.71,0,0,0,16.887,336.678Zm1.944,16.887a1.946,1.946,0,0,1-1.944,1.944H3.706a1.946,1.946,0,0,1-1.944-1.944V340.384a1.946,1.946,0,0,1,1.944-1.944H16.887a1.946,1.946,0,0,1,1.944,1.944v13.182Z" transform="translate(0 -336.678)"/><path class="b" d="M51,377.016a.881.881,0,0,0-1.246,0L45.671,381.1l-4.085-4.085a.881.881,0,1,0-1.246,1.246l4.085,4.085-4.085,4.085a.881.881,0,1,0,1.246,1.246l4.085-4.085,4.085,4.085A.881.881,0,0,0,51,386.431l-4.085-4.085L51,378.261A.881.881,0,0,0,51,377.016Z" transform="translate(-35.374 -372.05)"/></g></g></g></svg>